<?xml version="1.0" standalone="no"?>
<!DOCTYPE svg PUBLIC "-//W3C//DTD SVG 20010904//EN"
 "http://www.w3.org/TR/2001/REC-SVG-20010904/DTD/svg10.dtd">
<svg version="1.0" xmlns="http://www.w3.org/2000/svg"
 width="400.000000pt" height="1600.000000pt" viewBox="0 0 400.000000 1600.000000"
 preserveAspectRatio="xMidYMid meet">
<metadata>
Created by potrace 1.12, written by Peter Selinger 2001-2015
</metadata>
<g transform="translate(0.000000,1600.000000) scale(0.100000,-0.100000)"
fill="#000000" stroke="none">
<path d="M1032 15788 c-2 -34 1 -38 21 -37 15 1 17 3 5 6 -10 2 -18 17 -21 36
-4 31 -4 31 -5 -5z"/>
<path d="M2311 15783 c1 -21 3 -30 6 -20 2 9 13 17 23 17 10 0 21 -8 23 -17 3
-10 4 -2 3 17 -1 30 -5 35 -29 38 -25 3 -27 1 -26 -35z m49 17 c0 -5 -9 -10
-20 -10 -11 0 -20 5 -20 10 0 6 9 10 20 10 11 0 20 -4 20 -10z"/>
<path d="M351 15528 c-1 -10 -9 -18 -18 -19 -14 0 -15 -2 -3 -6 8 -3 18 -10
21 -15 10 -16 17 15 8 37 -6 17 -8 17 -8 3z"/>
<path d="M3004 15146 c-3 -8 1 -25 10 -38 9 -12 16 -17 16 -11 0 6 9 13 21 16
13 4 20 12 17 24 -4 23 -56 31 -64 9z m56 -11 c0 -9 -9 -15 -25 -15 -16 0 -25
6 -25 15 0 9 9 15 25 15 16 0 25 -6 25 -15z"/>
<path d="M3004 15065 c-9 -22 9 -37 37 -33 16 2 24 10 24 23 0 26 -52 35 -61
10z m56 -10 c0 -9 -9 -15 -25 -15 -16 0 -25 6 -25 15 0 9 9 15 25 15 16 0 25
-6 25 -15z"/>
<path d="M338 14913 c6 -2 18 -2 25 0 6 3 1 5 -13 5 -14 0 -19 -2 -12 -5z"/>
<path d="M927 14861 c-37 -3 -67 -9 -67 -13 0 -5 0 -12 0 -18 0 -6 47 -10 120
-10 66 0 120 4 120 9 0 5 18 11 39 15 22 3 43 11 46 16 7 11 -136 11 -258 1z"/>
<path d="M2200 14863 c0 -12 47 -23 101 -23 22 0 39 -4 39 -10 0 -5 25 -10 55
-10 30 0 55 5 55 10 0 6 10 10 22 10 15 0 19 3 12 10 -14 14 -284 26 -284 13z"/>
<path d="M338 14660 c2 -16 6 -30 8 -30 2 0 4 14 4 30 0 17 -4 30 -8 30 -5 0
-7 -13 -4 -30z"/>
<path d="M351 14248 c-1 -10 -9 -18 -18 -19 -14 0 -15 -2 -3 -6 8 -3 18 -10
21 -15 10 -16 17 15 8 37 -6 17 -8 17 -8 3z"/>
<path d="M408 14233 c6 -2 18 -2 25 0 6 3 1 5 -13 5 -14 0 -19 -2 -12 -5z"/>
<path d="M3004 13866 c-3 -8 1 -25 10 -38 9 -12 16 -17 16 -11 0 6 9 13 21 16
13 4 20 12 17 24 -4 23 -56 31 -64 9z m56 -11 c0 -9 -9 -15 -25 -15 -16 0 -25
6 -25 15 0 9 9 15 25 15 16 0 25 -6 25 -15z"/>
<path d="M3025 13780 c-30 -8 -30 -8 8 -9 23 -1 36 3 32 9 -3 6 -7 9 -8 9 -1
-1 -15 -5 -32 -9z"/>
<path d="M338 13633 c6 -2 18 -2 25 0 6 3 1 5 -13 5 -14 0 -19 -2 -12 -5z"/>
<path d="M2258 13613 c12 -2 30 -2 40 0 9 3 -1 5 -23 4 -22 0 -30 -2 -17 -4z"/>
<path d="M847 13584 c-3 -3 -3 -12 0 -20 6 -16 123 -21 123 -6 0 5 39 13 88
19 l87 10 -146 1 c-80 1 -148 -1 -152 -4z"/>
<path d="M2167 13579 c8 -8 45 -8 130 -2 l118 10 -129 2 c-95 1 -127 -2 -119
-10z"/>
<path d="M338 13380 c2 -16 6 -30 8 -30 2 0 4 14 4 30 0 17 -4 30 -8 30 -5 0
-7 -13 -4 -30z"/>
<path d="M351 12968 c-1 -10 -9 -18 -18 -19 -14 0 -15 -2 -3 -6 8 -3 18 -10
21 -15 10 -16 17 15 8 37 -6 17 -8 17 -8 3z"/>
<path d="M3004 12576 c-3 -8 1 -25 10 -38 9 -12 16 -17 16 -11 0 6 9 13 21 16
13 4 20 12 17 24 -4 23 -56 31 -64 9z m56 -11 c0 -9 -9 -15 -25 -15 -16 0 -25
6 -25 15 0 9 9 15 25 15 16 0 25 -6 25 -15z"/>
<path d="M3001 12483 l1 -28 7 25 7 25 12 -22 c7 -13 17 -23 23 -23 15 0 23
30 11 42 -8 8 -9 5 -5 -11 7 -27 -8 -27 -25 -1 -17 28 -32 25 -31 -7z"/>
<path d="M2296 12368 c-27 -4 -52 -11 -55 -16 -3 -5 -13 -12 -21 -15 -8 -3 34
-6 93 -6 98 -1 108 1 105 16 -4 22 -56 31 -122 21z"/>
<path d="M338 12353 c6 -2 18 -2 25 0 6 3 1 5 -13 5 -14 0 -19 -2 -12 -5z"/>
<path d="M850 12350 c0 -5 -7 -10 -15 -10 -8 0 -15 -4 -15 -10 0 -6 33 -10 79
-10 101 0 141 8 134 26 -6 17 -183 21 -183 4z"/>
<path d="M338 12100 c2 -16 6 -30 8 -30 2 0 4 14 4 30 0 17 -4 30 -8 30 -5 0
-7 -13 -4 -30z"/>
<path d="M408 12103 c6 -2 18 -2 25 0 6 3 1 5 -13 5 -14 0 -19 -2 -12 -5z"/>
<path d="M351 11688 c-1 -10 -9 -18 -18 -19 -14 0 -15 -2 -3 -6 8 -3 18 -10
21 -15 10 -16 17 15 8 37 -6 17 -8 17 -8 3z"/>
<path d="M3025 11290 c-30 -8 -30 -8 8 -9 23 -1 36 3 32 9 -3 6 -7 9 -8 9 -1
-1 -15 -5 -32 -9z"/>
<path d="M3004 11215 c-9 -22 9 -37 37 -33 16 2 24 10 24 23 0 26 -52 35 -61
10z m56 -10 c0 -9 -9 -15 -25 -15 -16 0 -25 6 -25 15 0 9 9 15 25 15 16 0 25
-6 25 -15z"/>
<path d="M338 11073 c6 -2 18 -2 25 0 6 3 1 5 -13 5 -14 0 -19 -2 -12 -5z"/>
<path d="M933 11013 c-51 -3 -73 -8 -77 -18 -4 -10 1 -15 14 -15 11 0 20 -4
20 -10 0 -5 7 -10 15 -10 8 0 15 4 15 9 0 4 48 11 106 14 59 3 109 9 113 14 3
6 13 13 21 16 16 6 -102 6 -227 0z"/>
<path d="M2223 11006 c9 -9 46 -18 91 -22 42 -4 76 -11 76 -15 0 -5 14 -9 30
-9 17 0 30 5 30 10 0 6 10 10 23 10 12 0 29 5 37 10 31 21 -16 30 -158 30
-125 0 -142 -2 -129 -14z"/>
<path d="M338 10820 c2 -16 6 -30 8 -30 2 0 4 14 4 30 0 17 -4 30 -8 30 -5 0
-7 -13 -4 -30z"/>
<path d="M351 10408 c-1 -10 -9 -18 -18 -19 -14 0 -15 -2 -3 -6 8 -3 18 -10
21 -15 10 -16 17 15 8 37 -6 17 -8 17 -8 3z"/>
<path d="M3025 10010 c-30 -8 -30 -8 8 -9 23 -1 36 3 32 9 -3 6 -7 9 -8 9 -1
-1 -15 -5 -32 -9z"/>
<path d="M3025 9930 c-30 -8 -30 -8 8 -9 23 -1 36 3 32 9 -3 6 -7 9 -8 9 -1
-1 -15 -5 -32 -9z"/>
<path d="M408 9823 c6 -2 18 -2 25 0 6 3 1 5 -13 5 -14 0 -19 -2 -12 -5z"/>
<path d="M338 9793 c6 -2 18 -2 25 0 6 3 1 5 -13 5 -14 0 -19 -2 -12 -5z"/>
<path d="M1073 9763 c20 -2 54 -2 75 0 20 2 3 4 -38 4 -41 0 -58 -2 -37 -4z"/>
<path d="M2208 9763 c29 -2 74 -2 100 0 26 2 2 3 -53 3 -55 0 -76 -1 -47 -3z"/>
<path d="M820 9725 c0 -23 43 -28 154 -21 127 9 176 16 176 27 0 5 -74 9 -165
9 -139 0 -165 -2 -165 -15z"/>
<path d="M2140 9732 c0 -11 320 -25 355 -16 64 16 9 24 -165 24 -104 0 -190
-4 -190 -8z"/>
<path d="M338 9540 c2 -16 6 -30 8 -30 2 0 4 14 4 30 0 17 -4 30 -8 30 -5 0
-7 -13 -4 -30z"/>
<path d="M351 9118 c-1 -10 -9 -18 -18 -19 -14 0 -15 -2 -3 -6 8 -3 18 -10 21
-15 10 -16 17 15 8 37 -6 17 -8 17 -8 3z"/>
<path d="M3025 8730 c-30 -8 -30 -8 8 -9 23 -1 36 3 32 9 -3 6 -7 9 -8 9 -1
-1 -15 -5 -32 -9z"/>
<path d="M3001 8643 l1 -28 7 25 7 25 12 -22 c7 -13 17 -23 23 -23 15 0 23 30
11 42 -8 8 -9 5 -5 -11 7 -27 -8 -27 -25 -1 -17 28 -32 25 -31 -7z"/>
<path d="M200 8532 c8 -4 15 -16 15 -27 0 -16 7 -20 30 -20 26 0 30 4 31 28 1
26 -1 27 -45 26 -25 0 -39 -3 -31 -7z m68 -25 c3 -12 -3 -17 -22 -17 -25 0
-35 18 -19 34 12 12 38 2 41 -17z"/>
<path d="M2340 8521 c0 -5 -16 -12 -35 -15 -70 -14 -34 -26 75 -26 61 0 110 4
110 9 0 11 -35 21 -72 21 -16 0 -28 5 -28 10 0 6 -11 10 -25 10 -14 0 -25 -4
-25 -9z"/>
<path d="M338 8513 c6 -2 18 -2 25 0 6 3 1 5 -13 5 -14 0 -19 -2 -12 -5z"/>
<path d="M3259 8501 c9 -6 10 -11 2 -15 -19 -12 -12 -26 12 -26 16 0 18 3 8 9
-9 6 -10 11 -2 15 19 12 12 26 -11 26 -17 0 -19 -3 -9 -9z"/>
<path d="M960 8490 c0 -6 35 -10 85 -10 50 0 85 4 85 10 0 6 -35 10 -85 10
-50 0 -85 -4 -85 -10z"/>
<path d="M219 8468 c-1 -2 -3 -13 -4 -25 -2 -20 2 -23 34 -22 35 1 35 2 7 8
-42 9 -44 29 -4 34 l33 4 -32 1 c-18 1 -34 1 -34 0z"/>
<path d="M880 8450 c0 -5 16 -10 35 -10 19 0 35 5 35 10 0 6 -16 10 -35 10
-19 0 -35 -4 -35 -10z"/>
<path d="M2410 8450 c0 -5 18 -10 40 -10 22 0 40 5 40 10 0 6 -18 10 -40 10
-22 0 -40 -4 -40 -10z"/>
<path d="M3474 8416 c-10 -26 0 -51 21 -51 16 0 20 7 20 30 0 33 -30 49 -41
21z m36 -21 c0 -16 -6 -25 -15 -25 -9 0 -15 9 -15 25 0 16 6 25 15 25 9 0 15
-9 15 -25z"/>
<path d="M3567 8413 c-21 -24 -22 -33 -3 -33 8 0 16 -5 18 -12 7 -21 15 15 9
40 -6 23 -6 24 -24 5z m13 -13 c0 -5 -5 -10 -11 -10 -5 0 -7 5 -4 10 3 6 8 10
11 10 2 0 4 -4 4 -10z"/>
<path d="M234 8401 c42 -9 44 -29 4 -34 l-33 -5 35 2 c29 1 35 5 36 24 1 19
-3 22 -35 21 -35 -1 -35 -2 -7 -8z"/>
<path d="M215 8338 c-2 -7 -3 -28 -2 -45 2 -31 4 -33 37 -32 20 1 26 3 15 6
-44 10 -50 16 -20 22 24 5 30 11 30 31 0 20 -6 26 -28 28 -16 2 -29 -2 -32
-10z m55 -18 c0 -15 -7 -20 -25 -20 -18 0 -25 5 -25 20 0 15 7 20 25 20 18 0
25 -5 25 -20z"/>
<path d="M338 8260 c2 -16 6 -30 8 -30 2 0 4 14 4 30 0 17 -4 30 -8 30 -5 0
-7 -13 -4 -30z"/>
<path d="M3474 8256 c-10 -26 0 -51 21 -51 16 0 20 7 20 30 0 33 -30 49 -41
21z m36 -21 c0 -16 -6 -25 -15 -25 -9 0 -15 9 -15 25 0 16 6 25 15 25 9 0 15
-9 15 -25z"/>
<path d="M3556 8261 c-4 -5 3 -7 14 -4 26 7 26 -9 0 -25 -28 -17 -25 -32 8
-31 26 2 26 2 3 6 l-25 5 23 18 c14 9 21 22 17 29 -9 13 -33 15 -40 2z"/>
<path d="M202 8238 c-27 -27 -6 -68 34 -68 28 0 45 21 42 54 -2 20 -8 26 -25
26 -18 0 -23 -5 -22 -22 1 -18 2 -19 6 -5 7 26 28 15 28 -14 0 -19 -6 -25 -28
-27 -32 -4 -46 21 -28 49 13 22 10 24 -7 7z"/>
<path d="M216 8108 c-2 -7 -4 -28 -3 -45 1 -31 3 -33 36 -32 35 1 35 2 7 8
-43 9 -45 31 -4 32 l33 1 -29 7 c-42 9 -44 29 -4 34 l33 4 -33 1 c-19 1 -34
-3 -36 -10z"/>
<path d="M3474 8086 c-10 -26 0 -51 21 -51 16 0 20 7 20 30 0 33 -30 49 -41
21z m36 -21 c0 -16 -6 -25 -15 -25 -9 0 -15 9 -15 25 0 16 6 25 15 25 9 0 15
-9 15 -25z"/>
<path d="M3554 8086 c-10 -26 0 -51 21 -51 16 0 20 7 20 30 0 33 -30 49 -41
21z m36 -21 c0 -16 -6 -25 -15 -25 -9 0 -15 9 -15 25 0 16 6 25 15 25 9 0 15
-9 15 -25z"/>
<path d="M215 8008 c-3 -7 -4 -24 -4 -38 3 -40 0 -52 -11 -45 -5 3 -10 2 -10
-3 0 -15 21 -19 60 -11 l35 6 -35 3 -35 3 35 7 c31 6 32 8 8 9 -37 1 -45 19
-11 23 22 2 28 8 28 28 0 20 -6 26 -28 28 -16 2 -29 -2 -32 -10z m55 -18 c0
-15 -7 -20 -25 -20 -18 0 -25 5 -25 20 0 15 7 20 25 20 18 0 25 -5 25 -20z"/>
<path d="M3504 7926 c-10 -26 0 -51 21 -51 16 0 20 7 20 30 0 33 -30 49 -41
21z m36 -21 c0 -16 -6 -25 -15 -25 -9 0 -15 9 -15 25 0 16 6 25 15 25 9 0 15
-9 15 -25z"/>
<path d="M3586 7931 c-4 -5 3 -7 14 -4 26 7 26 -9 0 -25 -28 -17 -25 -32 8
-31 26 2 26 2 3 6 l-25 5 23 18 c14 9 21 22 17 29 -9 13 -33 15 -40 2z"/>
<path d="M198 7859 c-7 -4 -6 -8 2 -11 17 -5 80 3 80 11 0 8 -69 8 -82 0z"/>
<path d="M351 7838 c-1 -10 -9 -18 -18 -19 -14 0 -15 -2 -3 -6 8 -3 18 -10 21
-15 10 -16 17 15 8 37 -6 17 -8 17 -8 3z"/>
<path d="M215 7820 c-3 -5 -4 -14 0 -19 3 -5 -3 -12 -12 -14 -10 -3 5 -5 32
-5 38 0 43 2 21 7 -42 9 -44 29 -4 34 l33 4 -32 1 c-17 1 -35 -2 -38 -8z"/>
<path d="M3504 7766 c-10 -26 0 -51 21 -51 16 0 20 7 20 30 0 33 -30 49 -41
21z m36 -21 c0 -16 -6 -25 -15 -25 -9 0 -15 9 -15 25 0 16 6 25 15 25 9 0 15
-9 15 -25z"/>
<path d="M3597 7763 c-21 -24 -22 -33 -3 -33 8 0 16 -5 18 -12 7 -21 15 15 9
40 -6 23 -6 24 -24 5z m13 -13 c0 -5 -5 -10 -11 -10 -5 0 -7 5 -4 10 3 6 8 10
11 10 2 0 4 -4 4 -10z"/>
<path d="M214 7743 c1 -24 5 -28 31 -28 25 0 30 4 29 23 0 12 4 21 10 19 6 -2
11 -14 10 -26 0 -13 3 -18 9 -12 5 5 7 17 5 27 -2 15 -14 20 -49 22 -45 3 -46
2 -45 -25z m54 -6 c3 -12 -3 -17 -22 -17 -25 0 -35 18 -19 34 12 12 38 2 41
-17z"/>
<path d="M3260 7691 c0 -10 -3 -39 -6 -65 -6 -41 -4 -46 12 -47 18 0 18 -1 -1
-9 -13 -6 11 -9 70 -9 59 0 83 3 70 9 -17 7 -17 9 -2 9 14 1 17 11 17 66 l0
65 -80 0 c-71 0 -80 -2 -80 -19z"/>
<path d="M228 7693 c12 -2 30 -2 40 0 9 3 -1 5 -23 4 -22 0 -30 -2 -17 -4z"/>
<path d="M214 7665 c-11 -27 4 -47 33 -43 29 3 43 32 25 50 -6 6 -8 0 -5 -16
3 -15 1 -26 -6 -26 -6 0 -11 11 -11 25 0 28 -27 35 -36 10z m26 -15 c0 -11 -4
-20 -10 -20 -5 0 -10 9 -10 20 0 11 5 20 10 20 6 0 10 -9 10 -20z"/>
<path d="M208 7603 c15 -3 22 -11 22 -28 0 -17 -7 -25 -22 -28 -13 -2 0 -4 27
-4 28 0 40 2 28 4 -16 3 -23 11 -23 28 0 17 7 25 23 28 12 2 0 4 -28 4 -27 0
-40 -2 -27 -4z"/>
<path d="M3504 7596 c-10 -26 0 -51 21 -51 16 0 20 7 20 30 0 33 -30 49 -41
21z m36 -21 c0 -16 -6 -25 -15 -25 -9 0 -15 9 -15 25 0 16 6 25 15 25 9 0 15
-9 15 -25z"/>
<path d="M3584 7596 c-10 -26 0 -51 21 -51 16 0 20 7 20 30 0 33 -30 49 -41
21z m36 -31 c0 -8 -7 -15 -15 -15 -8 0 -15 7 -15 15 0 8 7 15 15 15 8 0 15 -7
15 -15z"/>
<path d="M408 7543 c6 -2 18 -2 25 0 6 3 1 5 -13 5 -14 0 -19 -2 -12 -5z"/>
<path d="M3001 7443 l1 -28 7 25 7 25 12 -22 c7 -13 17 -23 23 -23 15 0 23 30
11 42 -8 8 -9 5 -5 -11 7 -27 -8 -27 -25 -1 -17 28 -32 25 -31 -7z"/>
<path d="M3004 7375 c-9 -22 9 -37 37 -33 16 2 24 10 24 23 0 26 -52 35 -61
10z m56 -10 c0 -9 -9 -15 -25 -15 -16 0 -25 6 -25 15 0 9 9 15 25 15 16 0 25
-6 25 -15z"/>
<path d="M338 7233 c6 -2 18 -2 25 0 6 3 1 5 -13 5 -14 0 -19 -2 -12 -5z"/>
<path d="M880 7170 c0 -5 -9 -10 -21 -10 -35 0 -18 -33 21 -42 48 -10 242 9
252 24 21 34 10 38 -122 38 -80 0 -130 -4 -130 -10z"/>
<path d="M2224 7167 c-19 -22 12 -38 85 -44 83 -7 141 2 141 22 0 10 -10 15
-30 15 -16 0 -30 5 -30 10 0 15 -153 12 -166 -3z"/>
<path d="M338 6970 c2 -16 6 -30 8 -30 2 0 4 14 4 30 0 17 -4 30 -8 30 -5 0
-7 -13 -4 -30z"/>
<path d="M351 6558 c-1 -10 -9 -18 -18 -19 -14 0 -15 -2 -3 -6 8 -3 18 -10 21
-15 10 -16 17 15 8 37 -6 17 -8 17 -8 3z"/>
<path d="M408 6263 c6 -2 18 -2 25 0 6 3 1 5 -13 5 -14 0 -19 -2 -12 -5z"/>
<path d="M3001 6163 l1 -28 7 25 7 25 12 -22 c7 -13 17 -23 23 -23 15 0 23 30
11 42 -8 8 -9 5 -5 -11 7 -27 -8 -27 -25 -1 -17 28 -32 25 -31 -7z"/>
<path d="M3025 6090 c-30 -8 -30 -8 8 -9 23 -1 36 3 32 9 -3 6 -7 9 -8 9 -1
-1 -15 -5 -32 -9z"/>
<path d="M338 5953 c6 -2 18 -2 25 0 6 3 1 5 -13 5 -14 0 -19 -2 -12 -5z"/>
<path d="M920 5893 c-30 -2 -66 -6 -79 -9 l-23 -5 23 -21 c22 -19 32 -20 139
-14 63 4 117 11 118 17 2 5 11 9 20 9 10 1 31 7 47 15 27 12 21 13 -80 12 -60
0 -135 -2 -165 -4z"/>
<path d="M2156 5885 c10 -8 27 -15 37 -15 9 0 17 -4 17 -10 0 -6 43 -10 110
-10 61 0 110 4 110 9 0 5 8 11 18 14 13 3 11 6 -11 15 -17 7 -84 12 -165 12
-122 0 -134 -2 -116 -15z"/>
<path d="M338 5690 c2 -16 6 -30 8 -30 2 0 4 14 4 30 0 17 -4 30 -8 30 -5 0
-7 -13 -4 -30z"/>
<path d="M351 5278 c-1 -10 -9 -18 -18 -19 -14 0 -15 -2 -3 -6 8 -3 18 -10 21
-15 10 -16 17 15 8 37 -6 17 -8 17 -8 3z"/>
<path d="M3001 4883 l1 -28 7 25 7 25 12 -22 c7 -13 17 -23 23 -23 15 0 23 30
11 42 -8 8 -9 5 -5 -11 7 -27 -8 -27 -25 -1 -17 28 -32 25 -31 -7z"/>
<path d="M3001 4803 l1 -28 7 25 7 25 12 -22 c7 -13 17 -23 23 -23 15 0 23 30
11 42 -8 8 -9 5 -5 -11 7 -27 -8 -27 -25 -1 -17 28 -32 25 -31 -7z"/>
<path d="M338 4663 c6 -2 18 -2 25 0 6 3 1 5 -13 5 -14 0 -19 -2 -12 -5z"/>
<path d="M1028 4643 c23 -2 61 -2 85 0 23 2 4 4 -43 4 -47 0 -66 -2 -42 -4z"/>
<path d="M855 4611 c-10 -17 62 -24 165 -16 170 12 169 23 -2 24 -89 1 -159
-3 -163 -8z"/>
<path d="M2270 4616 c0 -10 173 -27 210 -21 78 13 38 25 -85 25 -69 0 -125 -2
-125 -4z"/>
<path d="M338 4410 c2 -16 6 -30 8 -30 2 0 4 14 4 30 0 17 -4 30 -8 30 -5 0
-7 -13 -4 -30z"/>
<path d="M351 3998 c-1 -10 -9 -18 -18 -19 -14 0 -15 -2 -3 -6 8 -3 18 -10 21
-15 10 -16 17 15 8 37 -6 17 -8 17 -8 3z"/>
<path d="M408 3983 c6 -2 18 -2 25 0 6 3 1 5 -13 5 -14 0 -19 -2 -12 -5z"/>
<path d="M3004 3605 c-3 -8 1 -24 10 -37 9 -12 16 -17 16 -11 0 6 9 13 20 16
20 5 27 31 11 41 -5 4 -7 -3 -4 -14 6 -22 -12 -28 -20 -7 -4 10 -6 10 -6 0 -1
-7 -6 -13 -12 -13 -6 0 -9 9 -6 20 6 23 -1 27 -9 5z"/>
<path d="M3004 3525 c-9 -22 9 -37 37 -33 16 2 24 10 24 23 0 26 -52 35 -61
10z m56 -10 c0 -9 -9 -15 -25 -15 -16 0 -25 6 -25 15 0 9 9 15 25 15 16 0 25
-6 25 -15z"/>
<path d="M338 3383 c6 -2 18 -2 25 0 6 3 1 5 -13 5 -14 0 -19 -2 -12 -5z"/>
<path d="M1078 3327 c-38 -6 -68 -14 -68 -19 0 -4 -34 -8 -75 -8 -43 0 -75 4
-75 10 0 6 -11 10 -25 10 -14 0 -25 -4 -25 -10 0 -23 45 -29 200 -25 147 3
164 5 181 24 10 11 19 23 19 26 0 7 -52 4 -132 -8z"/>
<path d="M2200 3310 c0 -15 36 -30 74 -30 20 0 36 -4 36 -10 0 -5 16 -10 35
-10 19 0 35 5 35 10 0 6 15 10 34 10 19 0 38 5 41 10 4 6 -27 10 -84 10 -54 0
-91 4 -91 10 0 6 -18 10 -40 10 -22 0 -40 -4 -40 -10z"/>
<path d="M338 3130 c2 -16 6 -30 8 -30 2 0 4 14 4 30 0 17 -4 30 -8 30 -5 0
-7 -13 -4 -30z"/>
<path d="M351 2718 c-1 -10 -9 -18 -18 -19 -14 0 -15 -2 -3 -6 8 -3 18 -10 21
-15 10 -16 17 15 8 37 -6 17 -8 17 -8 3z"/>
<path d="M3004 2325 c-3 -8 1 -24 10 -37 9 -12 16 -17 16 -11 0 6 9 13 20 16
20 5 27 31 11 41 -5 4 -7 -3 -4 -14 6 -22 -12 -28 -20 -7 -4 10 -6 10 -6 0 -1
-7 -6 -13 -12 -13 -6 0 -9 9 -6 20 6 23 -1 27 -9 5z"/>
<path d="M3025 2240 c-30 -8 -30 -8 8 -9 23 -1 36 3 32 9 -3 6 -7 9 -8 9 -1
-1 -15 -5 -32 -9z"/>
<path d="M338 2103 c6 -2 18 -2 25 0 6 3 1 5 -13 5 -14 0 -19 -2 -12 -5z"/>
<path d="M1125 2080 c-27 -7 -25 -8 18 -9 30 -1 46 3 42 9 -7 11 -16 11 -60 0z"/>
<path d="M2202 2041 c14 -22 28 -27 114 -36 70 -8 174 10 174 29 0 16 -84 26
-212 26 -85 0 -88 -1 -76 -19z"/>
<path d="M893 2043 c-24 -2 -43 -9 -43 -14 0 -18 51 -29 128 -29 96 1 156 12
177 34 15 15 8 16 -102 14 -65 -1 -137 -3 -160 -5z"/>
<path d="M338 1850 c2 -16 6 -30 8 -30 2 0 4 14 4 30 0 17 -4 30 -8 30 -5 0
-7 -13 -4 -30z"/>
<path d="M408 1853 c6 -2 18 -2 25 0 6 3 1 5 -13 5 -14 0 -19 -2 -12 -5z"/>
<path d="M351 1438 c-1 -10 -9 -18 -18 -19 -14 0 -15 -2 -3 -6 8 -3 18 -10 21
-15 10 -16 17 15 8 37 -6 17 -8 17 -8 3z"/>
<path d="M3004 1045 c-3 -8 1 -24 10 -37 9 -12 16 -17 16 -11 0 6 9 13 20 16
20 5 27 31 11 41 -5 4 -7 -3 -4 -14 6 -22 -12 -28 -20 -7 -4 10 -6 10 -6 0 -1
-7 -6 -13 -12 -13 -6 0 -9 9 -6 20 6 23 -1 27 -9 5z"/>
<path d="M3001 953 l1 -28 7 25 7 25 12 -22 c7 -13 17 -23 23 -23 15 0 23 30
11 42 -8 8 -9 5 -5 -11 7 -27 -8 -27 -25 -1 -17 28 -32 25 -31 -7z"/>
<path d="M338 823 c6 -2 18 -2 25 0 6 3 1 5 -13 5 -14 0 -19 -2 -12 -5z"/>
<path d="M970 800 c-30 -5 2 -7 97 -8 85 -1 144 2 148 8 7 11 -172 11 -245 0z"/>
<path d="M2163 767 c15 -6 27 -14 27 -19 0 -4 49 -8 109 -8 84 0 110 3 114 14
8 20 -35 26 -167 25 -91 -1 -106 -3 -83 -12z"/>
<path d="M860 755 c0 -8 14 -17 35 -21 52 -9 235 0 243 13 4 6 16 13 27 16 11
2 -53 5 -142 6 -137 1 -163 -1 -163 -14z"/>
<path d="M338 570 c2 -16 6 -30 8 -30 2 0 4 14 4 30 0 17 -4 30 -8 30 -5 0 -7
-13 -4 -30z"/>
<path d="M788 260 c2 -16 6 -30 8 -30 2 0 4 14 4 30 0 17 -4 30 -8 30 -5 0 -7
-13 -4 -30z"/>
<path d="M1338 260 c2 -16 6 -30 8 -30 2 0 4 14 4 30 0 17 -4 30 -8 30 -5 0
-7 -13 -4 -30z"/>
<path d="M2068 260 c2 -16 6 -30 8 -30 2 0 4 14 4 30 0 17 -4 30 -8 30 -5 0
-7 -13 -4 -30z"/>
<path d="M2618 260 c2 -16 6 -30 8 -30 2 0 4 14 4 30 0 17 -4 30 -8 30 -5 0
-7 -13 -4 -30z"/>
<path d="M1041 264 c0 -11 3 -14 6 -6 3 7 2 16 -1 19 -3 4 -6 -2 -5 -13z"/>
<path d="M1081 264 c0 -11 3 -14 6 -6 3 7 2 16 -1 19 -3 4 -6 -2 -5 -13z"/>
<path d="M2321 264 c0 -11 3 -14 6 -6 3 7 2 16 -1 19 -3 4 -6 -2 -5 -13z"/>
<path d="M2361 264 c0 -11 3 -14 6 -6 3 7 2 16 -1 19 -3 4 -6 -2 -5 -13z"/>
<path d="M508 233 c6 -2 18 -2 25 0 6 3 1 5 -13 5 -14 0 -19 -2 -12 -5z"/>
<path d="M1618 233 c6 -2 18 -2 25 0 6 3 1 5 -13 5 -14 0 -19 -2 -12 -5z"/>
<path d="M1788 233 c6 -2 18 -2 25 0 6 3 1 5 -13 5 -14 0 -19 -2 -12 -5z"/>
<path d="M2908 233 c6 -2 18 -2 25 0 6 3 1 5 -13 5 -14 0 -19 -2 -12 -5z"/>
<path d="M1093 155 c0 -27 2 -40 4 -27 3 15 11 22 28 22 17 0 25 -7 28 -22 2
-13 4 0 4 27 0 28 -2 40 -4 28 -3 -16 -11 -23 -28 -23 -17 0 -25 7 -28 23 -2
12 -4 0 -4 -28z"/>
<path d="M1488 190 c-2 -7 -2 -27 0 -44 4 -31 6 -33 48 -33 l44 -1 -2 47 -1
46 -7 -45 c-5 -40 -7 -42 -11 -15 -3 23 -9 30 -27 30 -13 0 -27 7 -31 14 -7
10 -10 10 -13 1z m62 -40 c0 -20 -17 -36 -28 -25 -3 3 0 10 8 15 9 6 10 10 3
10 -7 0 -17 -8 -22 -17 -9 -16 -10 -15 -11 7 0 20 5 26 25 28 19 1 25 -3 25
-18z"/>
<path d="M1631 153 c1 -26 4 -38 6 -26 3 13 13 23 26 25 34 5 29 42 -5 46 -27
3 -28 2 -27 -45z m49 22 c0 -8 -9 -15 -20 -15 -11 0 -20 7 -20 15 0 8 9 15 20
15 11 0 20 -7 20 -15z"/>
<path d="M1728 190 c-2 -7 -2 -27 0 -45 4 -31 6 -33 40 -32 31 1 38 6 42 26 8
37 28 37 33 -1 l5 -33 -2 35 c-1 24 -6 35 -16 35 -8 0 -18 7 -22 15 -6 13 -7
13 -7 0 -1 -19 -49 -19 -61 -1 -6 10 -9 10 -12 1z m19 -57 c-3 -10 -5 -4 -5
12 0 17 2 24 5 18 2 -7 2 -21 0 -30z m48 12 c0 -11 -8 -21 -17 -23 -14 -3 -18
3 -18 23 0 20 4 26 18 23 9 -2 17 -12 17 -23z"/>
<path d="M1902 157 l-2 -47 58 2 c56 3 57 3 57 33 0 25 -4 30 -25 30 -20 0
-26 -6 -28 -27 -3 -22 -9 -28 -27 -28 -21 0 -24 5 -28 43 l-4 42 -1 -48z m108
-12 c0 -18 -5 -25 -20 -25 -15 0 -20 7 -20 25 0 18 5 25 20 25 15 0 20 -7 20
-25z"/>
<path d="M2148 189 c-2 -6 -2 -26 0 -45 5 -44 32 -47 32 -3 0 31 -25 69 -32
48z m19 -56 c-3 -10 -5 -4 -5 12 0 17 2 24 5 18 2 -7 2 -21 0 -30z"/>
<path d="M1174 166 c-11 -29 0 -51 26 -51 21 0 25 5 25 30 0 24 -5 31 -23 33
-13 2 -24 -3 -28 -12z m46 -21 c0 -18 -5 -25 -20 -25 -15 0 -20 7 -20 25 0 18
5 25 20 25 15 0 20 -7 20 -25z"/>
<path d="M1241 140 c1 -19 3 -26 6 -15 10 45 17 50 23 15 l7 -35 2 37 c1 31
-2 37 -19 35 -16 -1 -20 -8 -19 -37z"/>
<path d="M1308 171 l24 -6 -21 -19 c-28 -26 -26 -36 7 -35 26 1 26 1 4 8 l-24
6 21 19 c28 26 26 36 -6 35 -27 -1 -27 -1 -5 -8z"/>
<path d="M1354 166 c-11 -29 0 -51 26 -51 21 0 25 5 25 30 0 24 -5 31 -23 33
-13 2 -24 -3 -28 -12z m46 -21 c0 -18 -5 -25 -20 -25 -15 0 -20 7 -20 25 0 18
5 25 20 25 15 0 20 -7 20 -25z"/>
<path d="M1421 141 c1 -35 2 -35 8 -7 9 42 29 44 34 4 l5 -33 -2 35 c-1 29 -5
35 -23 36 -20 1 -23 -3 -22 -35z"/>
<path d="M1703 145 c0 -22 2 -30 4 -17 2 12 2 30 0 40 -3 9 -5 -1 -4 -23z"/>
<path d="M2034 165 c-14 -36 0 -50 52 -51 l51 -1 -6 31 c-6 28 -10 31 -50 33
-28 1 -44 -3 -47 -12z m86 -16 c0 -19 -17 -35 -28 -24 -3 3 0 10 8 15 8 6 10
10 4 10 -6 0 -17 -7 -24 -15 -19 -23 -40 -18 -40 9 0 21 5 23 40 23 32 0 40
-3 40 -18z"/>
<path d="M2194 166 c-11 -29 0 -51 26 -51 21 0 25 5 25 30 0 24 -5 31 -23 33
-13 2 -24 -3 -28 -12z m46 -21 c0 -18 -5 -25 -20 -25 -15 0 -20 7 -20 25 0 18
5 25 20 25 15 0 20 -7 20 -25z"/>
<path d="M2261 141 c1 -35 2 -35 8 -7 9 42 29 44 34 4 l5 -33 -2 35 c-1 29 -5
35 -23 36 -20 1 -23 -3 -22 -35z"/>
</g>
</svg>
